<mxfile host="app.diagrams.net" modified="2022-10-08T07:38:41.812Z" agent="5.0 (X11; Linux x86_64) AppleWebKit/537.36 (KHTML, like Gecko) Chrome/80.0.3987.116 Safari/537.36" etag="83LuYGor1Ue9fguXQus2" version="20.3.3" type="github">
  <diagram id="6a731a19-8d31-9384-78a2-239565b7b9f0" name="Page-1">
    <mxGraphModel dx="3200" dy="1978" grid="1" gridSize="10" guides="1" tooltips="1" connect="1" arrows="1" fold="1" page="1" pageScale="1" pageWidth="1169" pageHeight="827" background="none" math="0" shadow="0">
      <root>
        <mxCell id="0" />
        <mxCell id="1" parent="0" />
        <mxCell id="1745" value="" style="edgeStyle=none;rounded=0;jumpStyle=none;html=1;shadow=0;labelBackgroundColor=none;startArrow=none;startFill=0;endArrow=classic;endFill=1;jettySize=auto;orthogonalLoop=1;strokeColor=#2F5B7C;strokeWidth=3;fontFamily=Helvetica;fontSize=16;fontColor=#23445D;spacing=5;" parent="1" source="1749" target="1764" edge="1">
          <mxGeometry relative="1" as="geometry" />
        </mxCell>
        <mxCell id="1746" value="" style="edgeStyle=none;rounded=0;jumpStyle=none;html=1;shadow=0;labelBackgroundColor=none;startArrow=none;startFill=0;endArrow=classic;endFill=1;jettySize=auto;orthogonalLoop=1;strokeColor=#2F5B7C;strokeWidth=3;fontFamily=Helvetica;fontSize=16;fontColor=#23445D;spacing=5;exitX=1;exitY=0;exitDx=0;exitDy=0;" parent="1" source="1749" target="1771" edge="1">
          <mxGeometry relative="1" as="geometry" />
        </mxCell>
        <mxCell id="1747" value="" style="edgeStyle=none;rounded=0;jumpStyle=none;html=1;shadow=0;labelBackgroundColor=none;startArrow=none;startFill=0;endArrow=classic;endFill=1;jettySize=auto;orthogonalLoop=1;strokeColor=#2F5B7C;strokeWidth=3;fontFamily=Helvetica;fontSize=16;fontColor=#23445D;spacing=5;exitX=1;exitY=1;exitDx=0;exitDy=0;entryX=0;entryY=0;entryDx=0;entryDy=0;" parent="1" source="1749" target="1760" edge="1">
          <mxGeometry relative="1" as="geometry" />
        </mxCell>
        <mxCell id="1748" value="" style="edgeStyle=none;rounded=0;jumpStyle=none;html=1;shadow=0;labelBackgroundColor=none;startArrow=none;startFill=0;endArrow=classic;endFill=1;jettySize=auto;orthogonalLoop=1;strokeColor=#2F5B7C;strokeWidth=3;fontFamily=Helvetica;fontSize=16;fontColor=#23445D;spacing=5;" parent="1" source="1749" target="1753" edge="1">
          <mxGeometry relative="1" as="geometry" />
        </mxCell>
        <mxCell id="1749" value="java设计模式" style="rounded=1;whiteSpace=wrap;html=1;shadow=0;labelBackgroundColor=none;strokeColor=none;strokeWidth=3;fillColor=#2F5B7C;fontFamily=Helvetica;fontSize=16;fontColor=#FFFFFF;align=center;fontStyle=1;spacing=5;arcSize=7;perimeterSpacing=2;" parent="1" vertex="1">
          <mxGeometry x="495" y="380.5" width="150" height="70" as="geometry" />
        </mxCell>
        <mxCell id="1750" value="" style="edgeStyle=none;rounded=1;jumpStyle=none;html=1;shadow=0;labelBackgroundColor=none;startArrow=none;startFill=0;jettySize=auto;orthogonalLoop=1;strokeColor=#E85642;strokeWidth=3;fontFamily=Helvetica;fontSize=14;fontColor=#FFFFFF;spacing=5;fontStyle=1;fillColor=#b0e3e6;" parent="1" source="1753" target="1756" edge="1">
          <mxGeometry relative="1" as="geometry" />
        </mxCell>
        <mxCell id="1751" value="" style="edgeStyle=none;rounded=1;jumpStyle=none;html=1;shadow=0;labelBackgroundColor=none;startArrow=none;startFill=0;jettySize=auto;orthogonalLoop=1;strokeColor=#E85642;strokeWidth=3;fontFamily=Helvetica;fontSize=14;fontColor=#FFFFFF;spacing=5;fontStyle=1;fillColor=#b0e3e6;" parent="1" source="1753" target="1755" edge="1">
          <mxGeometry relative="1" as="geometry" />
        </mxCell>
        <mxCell id="1752" value="" style="edgeStyle=none;rounded=1;jumpStyle=none;html=1;shadow=0;labelBackgroundColor=none;startArrow=none;startFill=0;jettySize=auto;orthogonalLoop=1;strokeColor=#E85642;strokeWidth=3;fontFamily=Helvetica;fontSize=14;fontColor=#FFFFFF;spacing=5;fontStyle=1;fillColor=#b0e3e6;" parent="1" source="1753" target="1754" edge="1">
          <mxGeometry relative="1" as="geometry" />
        </mxCell>
        <mxCell id="1753" value="扩展型模式（3）" style="rounded=1;whiteSpace=wrap;html=1;shadow=0;labelBackgroundColor=none;strokeColor=none;strokeWidth=3;fillColor=#e85642;fontFamily=Helvetica;fontSize=14;fontColor=#FFFFFF;align=center;spacing=5;fontStyle=1;arcSize=7;perimeterSpacing=2;" parent="1" vertex="1">
          <mxGeometry x="270" y="290" width="150" height="60" as="geometry" />
        </mxCell>
        <mxCell id="1754" value="访问者模式" style="rounded=1;whiteSpace=wrap;html=1;shadow=0;labelBackgroundColor=none;strokeColor=none;strokeWidth=3;fillColor=#f08e81;fontFamily=Helvetica;fontSize=14;fontColor=#FFFFFF;align=center;spacing=5;fontStyle=0;arcSize=7;perimeterSpacing=2;" parent="1" vertex="1">
          <mxGeometry x="20" y="390.5" width="150" height="60" as="geometry" />
        </mxCell>
        <mxCell id="1755" value="迭代器模式" style="rounded=1;whiteSpace=wrap;html=1;shadow=0;labelBackgroundColor=none;strokeColor=none;strokeWidth=3;fillColor=#f08e81;fontFamily=Helvetica;fontSize=14;fontColor=#FFFFFF;align=center;spacing=5;fontStyle=0;arcSize=7;perimeterSpacing=2;" parent="1" vertex="1">
          <mxGeometry x="20" y="264.5" width="150" height="60" as="geometry" />
        </mxCell>
        <mxCell id="1756" value="装饰器模式" style="rounded=1;whiteSpace=wrap;html=1;shadow=0;labelBackgroundColor=none;strokeColor=none;strokeWidth=3;fillColor=#f08e81;fontFamily=Helvetica;fontSize=14;fontColor=#FFFFFF;align=center;spacing=5;fontStyle=0;arcSize=7;perimeterSpacing=2;" parent="1" vertex="1">
          <mxGeometry x="100" y="160" width="150" height="60" as="geometry" />
        </mxCell>
        <mxCell id="1757" value="" style="edgeStyle=none;rounded=0;jumpStyle=none;html=1;shadow=0;labelBackgroundColor=none;startArrow=none;startFill=0;endArrow=classic;endFill=1;jettySize=auto;orthogonalLoop=1;strokeColor=#1699D3;strokeWidth=3;fontFamily=Helvetica;fontSize=14;fontColor=#FFFFFF;spacing=5;" parent="1" source="1760" target="1763" edge="1">
          <mxGeometry relative="1" as="geometry" />
        </mxCell>
        <mxCell id="1758" value="" style="edgeStyle=none;rounded=0;jumpStyle=none;html=1;shadow=0;labelBackgroundColor=none;startArrow=none;startFill=0;endArrow=classic;endFill=1;jettySize=auto;orthogonalLoop=1;strokeColor=#1699D3;strokeWidth=3;fontFamily=Helvetica;fontSize=14;fontColor=#FFFFFF;spacing=5;" parent="1" source="1760" target="1762" edge="1">
          <mxGeometry relative="1" as="geometry" />
        </mxCell>
        <mxCell id="1759" value="" style="edgeStyle=none;rounded=0;jumpStyle=none;html=1;shadow=0;labelBackgroundColor=none;startArrow=none;startFill=0;endArrow=classic;endFill=1;jettySize=auto;orthogonalLoop=1;strokeColor=#1699D3;strokeWidth=3;fontFamily=Helvetica;fontSize=14;fontColor=#FFFFFF;spacing=5;" parent="1" source="1760" target="1761" edge="1">
          <mxGeometry relative="1" as="geometry" />
        </mxCell>
        <mxCell id="1760" value="构造型模式（5）" style="rounded=1;whiteSpace=wrap;html=1;shadow=0;labelBackgroundColor=none;strokeColor=none;strokeWidth=3;fillColor=#1699d3;fontFamily=Helvetica;fontSize=14;fontColor=#FFFFFF;align=center;spacing=5;fontStyle=1;arcSize=7;perimeterSpacing=2;" parent="1" vertex="1">
          <mxGeometry x="700" y="540" width="150" height="60" as="geometry" />
        </mxCell>
        <mxCell id="1761" value="构建者模式" style="rounded=1;whiteSpace=wrap;html=1;shadow=0;labelBackgroundColor=none;strokeColor=none;strokeWidth=3;fillColor=#64bbe2;fontFamily=Helvetica;fontSize=14;fontColor=#FFFFFF;align=center;spacing=5;arcSize=7;perimeterSpacing=2;" parent="1" vertex="1">
          <mxGeometry x="980" y="580" width="150" height="60" as="geometry" />
        </mxCell>
        <mxCell id="1762" value="工厂方法模式" style="rounded=1;whiteSpace=wrap;html=1;shadow=0;labelBackgroundColor=none;strokeColor=none;strokeWidth=3;fillColor=#64bbe2;fontFamily=Helvetica;fontSize=14;fontColor=#FFFFFF;align=center;spacing=5;arcSize=7;perimeterSpacing=2;" parent="1" vertex="1">
          <mxGeometry x="900" y="650" width="150" height="60" as="geometry" />
        </mxCell>
        <mxCell id="1763" value="抽象工厂模式" style="rounded=1;whiteSpace=wrap;html=1;shadow=0;labelBackgroundColor=none;strokeColor=none;strokeWidth=3;fillColor=#64bbe2;fontFamily=Helvetica;fontSize=14;fontColor=#FFFFFF;align=center;spacing=5;arcSize=7;perimeterSpacing=2;" parent="1" vertex="1">
          <mxGeometry x="820" y="730" width="150" height="60" as="geometry" />
        </mxCell>
        <mxCell id="1764" value="接口型模式（4）" style="rounded=1;whiteSpace=wrap;html=1;shadow=0;labelBackgroundColor=none;strokeColor=none;strokeWidth=3;fillColor=#F08705;fontFamily=Helvetica;fontSize=14;fontColor=#FFFFFF;align=center;spacing=5;fontStyle=1;arcSize=7;perimeterSpacing=2;" parent="1" vertex="1">
          <mxGeometry x="495" y="200.5" width="150" height="60" as="geometry" />
        </mxCell>
        <mxCell id="1765" value="合成模式" style="rounded=1;whiteSpace=wrap;html=1;shadow=0;labelBackgroundColor=none;strokeColor=none;strokeWidth=3;fillColor=#f5af58;fontFamily=Helvetica;fontSize=14;fontColor=#FFFFFF;align=center;spacing=5;arcSize=7;perimeterSpacing=2;" parent="1" vertex="1">
          <mxGeometry x="600" width="150" height="60" as="geometry" />
        </mxCell>
        <mxCell id="1766" value="" style="edgeStyle=none;rounded=0;jumpStyle=none;html=1;shadow=0;labelBackgroundColor=none;startArrow=none;startFill=0;endArrow=classic;endFill=1;jettySize=auto;orthogonalLoop=1;strokeColor=#F08705;strokeWidth=3;fontFamily=Helvetica;fontSize=14;fontColor=#FFFFFF;spacing=5;" parent="1" source="1764" target="1765" edge="1">
          <mxGeometry relative="1" as="geometry" />
        </mxCell>
        <mxCell id="1767" value="外观模式" style="rounded=1;whiteSpace=wrap;html=1;shadow=0;labelBackgroundColor=none;strokeColor=none;strokeWidth=3;fillColor=#f5af58;fontFamily=Helvetica;fontSize=14;fontColor=#FFFFFF;align=center;spacing=5;arcSize=7;perimeterSpacing=2;" parent="1" vertex="1">
          <mxGeometry x="430" width="150" height="60" as="geometry" />
        </mxCell>
        <mxCell id="1768" value="" style="edgeStyle=none;rounded=0;jumpStyle=none;html=1;shadow=0;labelBackgroundColor=none;startArrow=none;startFill=0;endArrow=classic;endFill=1;jettySize=auto;orthogonalLoop=1;strokeColor=#F08705;strokeWidth=3;fontFamily=Helvetica;fontSize=14;fontColor=#FFFFFF;spacing=5;" parent="1" source="1764" target="1767" edge="1">
          <mxGeometry relative="1" as="geometry" />
        </mxCell>
        <mxCell id="1769" value="适配器模式" style="rounded=1;whiteSpace=wrap;html=1;shadow=0;labelBackgroundColor=none;strokeColor=none;strokeWidth=3;fillColor=#f5af58;fontFamily=Helvetica;fontSize=14;fontColor=#FFFFFF;align=center;spacing=5;arcSize=7;perimeterSpacing=2;" parent="1" vertex="1">
          <mxGeometry x="295" y="80" width="150" height="60" as="geometry" />
        </mxCell>
        <mxCell id="1770" value="" style="edgeStyle=none;rounded=0;jumpStyle=none;html=1;shadow=0;labelBackgroundColor=none;startArrow=none;startFill=0;endArrow=classic;endFill=1;jettySize=auto;orthogonalLoop=1;strokeColor=#F08705;strokeWidth=3;fontFamily=Helvetica;fontSize=14;fontColor=#FFFFFF;spacing=5;" parent="1" source="1764" target="1769" edge="1">
          <mxGeometry relative="1" as="geometry" />
        </mxCell>
        <mxCell id="1771" value="职责型模式（6）" style="rounded=1;whiteSpace=wrap;html=1;shadow=0;labelBackgroundColor=none;strokeColor=none;strokeWidth=3;fillColor=#12aab5;fontFamily=Helvetica;fontSize=14;fontColor=#FFFFFF;align=center;spacing=5;fontStyle=1;arcSize=7;perimeterSpacing=2;" parent="1" vertex="1">
          <mxGeometry x="750" y="289.9999999999999" width="150" height="60" as="geometry" />
        </mxCell>
        <mxCell id="1772" value="代理模式" style="rounded=1;whiteSpace=wrap;html=1;shadow=0;labelBackgroundColor=none;strokeColor=none;strokeWidth=3;fillColor=#61c6ce;fontFamily=Helvetica;fontSize=14;fontColor=#FFFFFF;align=center;spacing=5;fontStyle=0;arcSize=7;perimeterSpacing=2;" parent="1" vertex="1">
          <mxGeometry x="1100" y="360" width="150" height="60" as="geometry" />
        </mxCell>
        <mxCell id="1773" value="" style="edgeStyle=none;rounded=1;jumpStyle=none;html=1;shadow=0;labelBackgroundColor=none;startArrow=none;startFill=0;jettySize=auto;orthogonalLoop=1;strokeColor=#12AAB5;strokeWidth=3;fontFamily=Helvetica;fontSize=14;fontColor=#FFFFFF;spacing=5;fontStyle=1;fillColor=#b0e3e6;" parent="1" source="1771" target="1772" edge="1">
          <mxGeometry relative="1" as="geometry" />
        </mxCell>
        <mxCell id="1774" value="调停者模式" style="rounded=1;whiteSpace=wrap;html=1;shadow=0;labelBackgroundColor=none;strokeColor=none;strokeWidth=3;fillColor=#61c6ce;fontFamily=Helvetica;fontSize=14;fontColor=#FFFFFF;align=center;spacing=5;fontStyle=0;arcSize=7;perimeterSpacing=2;" parent="1" vertex="1">
          <mxGeometry x="1070" y="270" width="150" height="60" as="geometry" />
        </mxCell>
        <mxCell id="1775" value="" style="edgeStyle=none;rounded=1;jumpStyle=none;html=1;shadow=0;labelBackgroundColor=none;startArrow=none;startFill=0;jettySize=auto;orthogonalLoop=1;strokeColor=#12AAB5;strokeWidth=3;fontFamily=Helvetica;fontSize=14;fontColor=#FFFFFF;spacing=5;fontStyle=1;fillColor=#b0e3e6;" parent="1" source="1771" target="1774" edge="1">
          <mxGeometry relative="1" as="geometry" />
        </mxCell>
        <mxCell id="1776" value="观察者模式" style="rounded=1;whiteSpace=wrap;html=1;shadow=0;labelBackgroundColor=none;strokeColor=none;strokeWidth=3;fillColor=#61c6ce;fontFamily=Helvetica;fontSize=14;fontColor=#FFFFFF;align=center;spacing=5;fontStyle=0;arcSize=7;perimeterSpacing=2;" parent="1" vertex="1">
          <mxGeometry x="1019" y="180" width="150" height="60" as="geometry" />
        </mxCell>
        <mxCell id="1777" value="" style="edgeStyle=none;rounded=1;jumpStyle=none;html=1;shadow=0;labelBackgroundColor=none;startArrow=none;startFill=0;jettySize=auto;orthogonalLoop=1;strokeColor=#12AAB5;strokeWidth=3;fontFamily=Helvetica;fontSize=14;fontColor=#FFFFFF;spacing=5;fontStyle=1;fillColor=#b0e3e6;" parent="1" source="1771" target="1776" edge="1">
          <mxGeometry relative="1" as="geometry" />
        </mxCell>
        <mxCell id="1778" value="单例模式" style="rounded=1;whiteSpace=wrap;html=1;shadow=0;labelBackgroundColor=none;strokeColor=none;strokeWidth=3;fillColor=#61c6ce;fontFamily=Helvetica;fontSize=14;fontColor=#FFFFFF;align=center;spacing=5;fontStyle=0;arcSize=7;perimeterSpacing=2;" parent="1" vertex="1">
          <mxGeometry x="880" y="110" width="150" height="60" as="geometry" />
        </mxCell>
        <mxCell id="1779" value="" style="edgeStyle=none;rounded=1;jumpStyle=none;html=1;shadow=0;labelBackgroundColor=none;startArrow=none;startFill=0;jettySize=auto;orthogonalLoop=1;strokeColor=#12AAB5;strokeWidth=3;fontFamily=Helvetica;fontSize=14;fontColor=#FFFFFF;spacing=5;fontStyle=1;fillColor=#b0e3e6;" parent="1" source="1771" target="1778" edge="1">
          <mxGeometry relative="1" as="geometry" />
        </mxCell>
        <mxCell id="4a9uGaRd72NeFOy7xEUE-1779" value="桥接模式" style="rounded=1;whiteSpace=wrap;html=1;shadow=0;labelBackgroundColor=none;strokeColor=none;strokeWidth=3;fillColor=#f5af58;fontFamily=Helvetica;fontSize=14;fontColor=#FFFFFF;align=center;spacing=5;arcSize=7;perimeterSpacing=2;" parent="1" vertex="1">
          <mxGeometry x="690" y="100" width="150" height="60" as="geometry" />
        </mxCell>
        <mxCell id="4a9uGaRd72NeFOy7xEUE-1781" value="" style="edgeStyle=none;rounded=0;jumpStyle=none;html=1;shadow=0;labelBackgroundColor=none;startArrow=none;startFill=0;endArrow=classic;endFill=1;jettySize=auto;orthogonalLoop=1;strokeColor=#F08705;strokeWidth=3;fontFamily=Helvetica;fontSize=14;fontColor=#FFFFFF;spacing=5;exitX=0.896;exitY=-0.008;exitDx=0;exitDy=0;exitPerimeter=0;entryX=0.25;entryY=1;entryDx=0;entryDy=0;" parent="1" source="1764" target="4a9uGaRd72NeFOy7xEUE-1779" edge="1">
          <mxGeometry relative="1" as="geometry">
            <mxPoint x="614.1637010676156" y="208.5" as="sourcePoint" />
            <mxPoint x="740" y="170" as="targetPoint" />
          </mxGeometry>
        </mxCell>
        <mxCell id="4a9uGaRd72NeFOy7xEUE-1783" value="" style="edgeStyle=none;rounded=1;jumpStyle=none;html=1;shadow=0;labelBackgroundColor=none;startArrow=none;startFill=0;jettySize=auto;orthogonalLoop=1;strokeColor=#12AAB5;strokeWidth=3;fontFamily=Helvetica;fontSize=14;fontColor=#FFFFFF;spacing=5;fontStyle=1;fillColor=#b0e3e6;exitX=0.75;exitY=1;exitDx=0;exitDy=0;entryX=0;entryY=0;entryDx=0;entryDy=0;" parent="1" source="1771" target="4a9uGaRd72NeFOy7xEUE-1784" edge="1">
          <mxGeometry relative="1" as="geometry">
            <mxPoint x="940" y="450" as="sourcePoint" />
            <mxPoint x="1078" y="457.53999999999996" as="targetPoint" />
          </mxGeometry>
        </mxCell>
        <mxCell id="4a9uGaRd72NeFOy7xEUE-1784" value="职责链模式" style="rounded=1;whiteSpace=wrap;html=1;shadow=0;labelBackgroundColor=none;strokeColor=none;strokeWidth=3;fillColor=#61c6ce;fontFamily=Helvetica;fontSize=14;fontColor=#FFFFFF;align=center;spacing=5;fontStyle=0;arcSize=7;perimeterSpacing=2;" parent="1" vertex="1">
          <mxGeometry x="1040" y="430" width="150" height="60" as="geometry" />
        </mxCell>
        <mxCell id="4a9uGaRd72NeFOy7xEUE-1785" value="享元模式" style="rounded=1;whiteSpace=wrap;html=1;shadow=0;labelBackgroundColor=none;strokeColor=none;strokeWidth=3;fillColor=#61c6ce;fontFamily=Helvetica;fontSize=14;fontColor=#FFFFFF;align=center;spacing=5;fontStyle=0;arcSize=7;perimeterSpacing=2;" parent="1" vertex="1">
          <mxGeometry x="880" y="490" width="150" height="60" as="geometry" />
        </mxCell>
        <mxCell id="4a9uGaRd72NeFOy7xEUE-1786" value="" style="edgeStyle=none;rounded=1;jumpStyle=none;html=1;shadow=0;labelBackgroundColor=none;startArrow=none;startFill=0;jettySize=auto;orthogonalLoop=1;strokeColor=#12AAB5;strokeWidth=3;fontFamily=Helvetica;fontSize=14;fontColor=#FFFFFF;spacing=5;fontStyle=1;fillColor=#b0e3e6;exitX=0.5;exitY=1;exitDx=0;exitDy=0;entryX=0.246;entryY=0.052;entryDx=0;entryDy=0;entryPerimeter=0;" parent="1" source="1771" target="4a9uGaRd72NeFOy7xEUE-1785" edge="1">
          <mxGeometry relative="1" as="geometry">
            <mxPoint x="890.0040000000001" y="445.498" as="sourcePoint" />
            <mxPoint x="984.7000000000003" y="519.7100000000003" as="targetPoint" />
          </mxGeometry>
        </mxCell>
        <mxCell id="4a9uGaRd72NeFOy7xEUE-1787" value="" style="edgeStyle=none;rounded=0;jumpStyle=none;html=1;shadow=0;labelBackgroundColor=none;startArrow=none;startFill=0;endArrow=classic;endFill=1;jettySize=auto;orthogonalLoop=1;strokeColor=#1699D3;strokeWidth=3;fontFamily=Helvetica;fontSize=14;fontColor=#FFFFFF;spacing=5;exitX=0.5;exitY=1;exitDx=0;exitDy=0;" parent="1" source="1760" target="4a9uGaRd72NeFOy7xEUE-1788" edge="1">
          <mxGeometry relative="1" as="geometry">
            <mxPoint x="671.0401002506264" y="642.5" as="sourcePoint" />
          </mxGeometry>
        </mxCell>
        <mxCell id="4a9uGaRd72NeFOy7xEUE-1788" value="原型模式" style="rounded=1;whiteSpace=wrap;html=1;shadow=0;labelBackgroundColor=none;strokeColor=none;strokeWidth=3;fillColor=#64bbe2;fontFamily=Helvetica;fontSize=14;fontColor=#FFFFFF;align=center;spacing=5;arcSize=7;perimeterSpacing=2;" parent="1" vertex="1">
          <mxGeometry x="720" y="810" width="150" height="60" as="geometry" />
        </mxCell>
        <mxCell id="4a9uGaRd72NeFOy7xEUE-1789" value="" style="edgeStyle=none;rounded=0;jumpStyle=none;html=1;shadow=0;labelBackgroundColor=none;startArrow=none;startFill=0;endArrow=classic;endFill=1;jettySize=auto;orthogonalLoop=1;strokeColor=#1699D3;strokeWidth=3;fontFamily=Helvetica;fontSize=14;fontColor=#FFFFFF;spacing=5;exitX=0.25;exitY=1;exitDx=0;exitDy=0;" parent="1" source="1760" target="4a9uGaRd72NeFOy7xEUE-1790" edge="1">
          <mxGeometry relative="1" as="geometry">
            <mxPoint x="750" y="610" as="sourcePoint" />
          </mxGeometry>
        </mxCell>
        <mxCell id="4a9uGaRd72NeFOy7xEUE-1790" value="备忘录模式" style="rounded=1;whiteSpace=wrap;html=1;shadow=0;labelBackgroundColor=none;strokeColor=none;strokeWidth=3;fillColor=#64bbe2;fontFamily=Helvetica;fontSize=14;fontColor=#FFFFFF;align=center;spacing=5;arcSize=7;perimeterSpacing=2;" parent="1" vertex="1">
          <mxGeometry x="580" y="700" width="150" height="60" as="geometry" />
        </mxCell>
        <mxCell id="4a9uGaRd72NeFOy7xEUE-1791" value="操作型模式（5）" style="rounded=1;whiteSpace=wrap;html=1;shadow=0;labelBackgroundColor=none;strokeColor=#9673a6;strokeWidth=3;fillColor=#e1d5e7;fontFamily=Helvetica;fontSize=14;align=center;spacing=5;fontStyle=1;arcSize=7;perimeterSpacing=2;" parent="1" vertex="1">
          <mxGeometry x="260" y="540" width="150" height="60" as="geometry" />
        </mxCell>
        <mxCell id="4a9uGaRd72NeFOy7xEUE-1792" value="" style="edgeStyle=none;rounded=0;jumpStyle=none;html=1;shadow=0;labelBackgroundColor=none;startArrow=none;startFill=0;endArrow=classic;endFill=1;jettySize=auto;orthogonalLoop=1;strokeColor=#2F5B7C;strokeWidth=3;fontFamily=Helvetica;fontSize=16;fontColor=#23445D;spacing=5;exitX=1;exitY=1;exitDx=0;exitDy=0;entryX=1;entryY=0;entryDx=0;entryDy=0;" parent="1" target="4a9uGaRd72NeFOy7xEUE-1791" edge="1">
          <mxGeometry relative="1" as="geometry">
            <mxPoint x="495" y="450.5" as="sourcePoint" />
            <mxPoint x="546" y="536" as="targetPoint" />
          </mxGeometry>
        </mxCell>
        <mxCell id="4a9uGaRd72NeFOy7xEUE-1793" value="" style="edgeStyle=none;rounded=0;jumpStyle=none;html=1;shadow=0;labelBackgroundColor=none;startArrow=none;startFill=0;endArrow=classic;endFill=1;jettySize=auto;orthogonalLoop=1;strokeColor=#A680B8;strokeWidth=3;fontFamily=Helvetica;fontSize=14;fontColor=#FFFFFF;spacing=5;exitX=0;exitY=0.5;exitDx=0;exitDy=0;fillColor=#D5E8D4;entryX=1;entryY=0.5;entryDx=0;entryDy=0;" parent="1" source="4a9uGaRd72NeFOy7xEUE-1791" target="4a9uGaRd72NeFOy7xEUE-1795" edge="1">
          <mxGeometry relative="1" as="geometry">
            <mxPoint x="260" y="600" as="sourcePoint" />
            <mxPoint x="200" y="700" as="targetPoint" />
          </mxGeometry>
        </mxCell>
        <mxCell id="4a9uGaRd72NeFOy7xEUE-1794" value="命令模式" style="rounded=1;whiteSpace=wrap;html=1;shadow=0;labelBackgroundColor=none;strokeColor=#9673a6;strokeWidth=3;fillColor=#e1d5e7;fontFamily=Helvetica;fontSize=14;align=center;spacing=5;arcSize=7;perimeterSpacing=2;" parent="1" vertex="1">
          <mxGeometry y="680" width="150" height="60" as="geometry" />
        </mxCell>
        <mxCell id="4a9uGaRd72NeFOy7xEUE-1795" value="解释器模式" style="rounded=1;whiteSpace=wrap;html=1;shadow=0;labelBackgroundColor=none;strokeColor=#9673a6;strokeWidth=3;fillColor=#e1d5e7;fontFamily=Helvetica;fontSize=14;align=center;spacing=5;arcSize=7;perimeterSpacing=2;" parent="1" vertex="1">
          <mxGeometry x="-20" y="570" width="150" height="60" as="geometry" />
        </mxCell>
        <mxCell id="4a9uGaRd72NeFOy7xEUE-1796" value="策略模式" style="rounded=1;whiteSpace=wrap;html=1;shadow=0;labelBackgroundColor=none;strokeColor=#9673a6;strokeWidth=3;fillColor=#e1d5e7;fontFamily=Helvetica;fontSize=14;align=center;spacing=5;arcSize=7;perimeterSpacing=2;" parent="1" vertex="1">
          <mxGeometry x="50" y="790" width="150" height="60" as="geometry" />
        </mxCell>
        <mxCell id="4a9uGaRd72NeFOy7xEUE-1797" value="状态模式" style="rounded=1;whiteSpace=wrap;html=1;shadow=0;labelBackgroundColor=none;strokeColor=#9673a6;strokeWidth=3;fillColor=#e1d5e7;fontFamily=Helvetica;fontSize=14;align=center;spacing=5;arcSize=7;perimeterSpacing=2;" parent="1" vertex="1">
          <mxGeometry x="260" y="790" width="150" height="60" as="geometry" />
        </mxCell>
        <mxCell id="4a9uGaRd72NeFOy7xEUE-1798" value="模板方法模式" style="rounded=1;whiteSpace=wrap;html=1;shadow=0;labelBackgroundColor=none;strokeColor=#9673a6;strokeWidth=3;fillColor=#e1d5e7;fontFamily=Helvetica;fontSize=14;align=center;spacing=5;arcSize=7;perimeterSpacing=2;" parent="1" vertex="1">
          <mxGeometry x="390" y="700" width="150" height="60" as="geometry" />
        </mxCell>
        <mxCell id="4a9uGaRd72NeFOy7xEUE-1799" value="" style="edgeStyle=none;rounded=0;jumpStyle=none;html=1;shadow=0;labelBackgroundColor=none;startArrow=none;startFill=0;endArrow=classic;endFill=1;jettySize=auto;orthogonalLoop=1;strokeColor=#A680B8;strokeWidth=3;fontFamily=Helvetica;fontSize=14;fontColor=#FFFFFF;spacing=5;exitX=0;exitY=1;exitDx=0;exitDy=0;fillColor=#D5E8D4;entryX=1;entryY=0;entryDx=0;entryDy=0;" parent="1" source="4a9uGaRd72NeFOy7xEUE-1791" target="4a9uGaRd72NeFOy7xEUE-1794" edge="1">
          <mxGeometry relative="1" as="geometry">
            <mxPoint x="268" y="580" as="sourcePoint" />
            <mxPoint x="142" y="610" as="targetPoint" />
          </mxGeometry>
        </mxCell>
        <mxCell id="4a9uGaRd72NeFOy7xEUE-1800" value="" style="edgeStyle=none;rounded=0;jumpStyle=none;html=1;shadow=0;labelBackgroundColor=none;startArrow=none;startFill=0;endArrow=classic;endFill=1;jettySize=auto;orthogonalLoop=1;strokeColor=#A680B8;strokeWidth=3;fontFamily=Helvetica;fontSize=14;fontColor=#FFFFFF;spacing=5;exitX=0.5;exitY=1;exitDx=0;exitDy=0;fillColor=#D5E8D4;entryX=1;entryY=0;entryDx=0;entryDy=0;" parent="1" source="4a9uGaRd72NeFOy7xEUE-1791" target="4a9uGaRd72NeFOy7xEUE-1796" edge="1">
          <mxGeometry relative="1" as="geometry">
            <mxPoint x="278" y="590" as="sourcePoint" />
            <mxPoint x="152" y="620" as="targetPoint" />
          </mxGeometry>
        </mxCell>
        <mxCell id="4a9uGaRd72NeFOy7xEUE-1801" value="" style="edgeStyle=none;rounded=0;jumpStyle=none;html=1;shadow=0;labelBackgroundColor=none;startArrow=none;startFill=0;endArrow=classic;endFill=1;jettySize=auto;orthogonalLoop=1;strokeColor=#A680B8;strokeWidth=3;fontFamily=Helvetica;fontSize=14;fontColor=#FFFFFF;spacing=5;exitX=0.75;exitY=1;exitDx=0;exitDy=0;fillColor=#D5E8D4;" parent="1" source="4a9uGaRd72NeFOy7xEUE-1791" target="4a9uGaRd72NeFOy7xEUE-1797" edge="1">
          <mxGeometry relative="1" as="geometry">
            <mxPoint x="288" y="600" as="sourcePoint" />
            <mxPoint x="162" y="630" as="targetPoint" />
          </mxGeometry>
        </mxCell>
        <mxCell id="4a9uGaRd72NeFOy7xEUE-1802" value="" style="edgeStyle=none;rounded=0;jumpStyle=none;html=1;shadow=0;labelBackgroundColor=none;startArrow=none;startFill=0;endArrow=classic;endFill=1;jettySize=auto;orthogonalLoop=1;strokeColor=#A680B8;strokeWidth=3;fontFamily=Helvetica;fontSize=14;fontColor=#FFFFFF;spacing=5;exitX=1;exitY=1;exitDx=0;exitDy=0;fillColor=#D5E8D4;entryX=0.5;entryY=0;entryDx=0;entryDy=0;" parent="1" source="4a9uGaRd72NeFOy7xEUE-1791" target="4a9uGaRd72NeFOy7xEUE-1798" edge="1">
          <mxGeometry relative="1" as="geometry">
            <mxPoint x="298" y="610" as="sourcePoint" />
            <mxPoint x="172" y="640" as="targetPoint" />
          </mxGeometry>
        </mxCell>
        <mxCell id="4kRK0BYigSoJ91SEgmZK-1784" style="edgeStyle=orthogonalEdgeStyle;rounded=0;orthogonalLoop=1;jettySize=auto;html=1;exitX=0.5;exitY=0;exitDx=0;exitDy=0;" edge="1" parent="1" source="4kRK0BYigSoJ91SEgmZK-1782">
          <mxGeometry relative="1" as="geometry">
            <mxPoint x="600.3529411764707" y="1480" as="targetPoint" />
          </mxGeometry>
        </mxCell>
        <mxCell id="4kRK0BYigSoJ91SEgmZK-1786" style="edgeStyle=orthogonalEdgeStyle;rounded=0;orthogonalLoop=1;jettySize=auto;html=1;exitX=0;exitY=0.5;exitDx=0;exitDy=0;" edge="1" parent="1" source="4kRK0BYigSoJ91SEgmZK-1782">
          <mxGeometry relative="1" as="geometry">
            <mxPoint x="360" y="1669.7058823529414" as="targetPoint" />
          </mxGeometry>
        </mxCell>
        <mxCell id="4kRK0BYigSoJ91SEgmZK-1789" style="edgeStyle=orthogonalEdgeStyle;rounded=0;orthogonalLoop=1;jettySize=auto;html=1;exitX=1;exitY=0.5;exitDx=0;exitDy=0;entryX=0;entryY=0.5;entryDx=0;entryDy=0;" edge="1" parent="1" source="4kRK0BYigSoJ91SEgmZK-1782" target="4kRK0BYigSoJ91SEgmZK-1788">
          <mxGeometry relative="1" as="geometry" />
        </mxCell>
        <mxCell id="4kRK0BYigSoJ91SEgmZK-1782" value="Java设计模式(23种)" style="rounded=1;whiteSpace=wrap;html=1;" vertex="1" parent="1">
          <mxGeometry x="540" y="1640" width="120" height="60" as="geometry" />
        </mxCell>
        <mxCell id="4kRK0BYigSoJ91SEgmZK-1795" style="edgeStyle=orthogonalEdgeStyle;rounded=0;orthogonalLoop=1;jettySize=auto;html=1;exitX=0;exitY=0.5;exitDx=0;exitDy=0;entryX=1;entryY=0.5;entryDx=0;entryDy=0;" edge="1" parent="1" source="4kRK0BYigSoJ91SEgmZK-1785" target="4kRK0BYigSoJ91SEgmZK-1790">
          <mxGeometry relative="1" as="geometry" />
        </mxCell>
        <mxCell id="4kRK0BYigSoJ91SEgmZK-1796" style="edgeStyle=orthogonalEdgeStyle;rounded=0;orthogonalLoop=1;jettySize=auto;html=1;exitX=1;exitY=0.5;exitDx=0;exitDy=0;entryX=0;entryY=0.5;entryDx=0;entryDy=0;" edge="1" parent="1" source="4kRK0BYigSoJ91SEgmZK-1785" target="4kRK0BYigSoJ91SEgmZK-1794">
          <mxGeometry relative="1" as="geometry" />
        </mxCell>
        <mxCell id="4kRK0BYigSoJ91SEgmZK-1797" style="edgeStyle=orthogonalEdgeStyle;rounded=0;orthogonalLoop=1;jettySize=auto;html=1;exitX=1;exitY=0;exitDx=0;exitDy=0;entryX=0;entryY=0.5;entryDx=0;entryDy=0;" edge="1" parent="1" source="4kRK0BYigSoJ91SEgmZK-1785" target="4kRK0BYigSoJ91SEgmZK-1793">
          <mxGeometry relative="1" as="geometry" />
        </mxCell>
        <mxCell id="4kRK0BYigSoJ91SEgmZK-1798" style="edgeStyle=orthogonalEdgeStyle;rounded=0;orthogonalLoop=1;jettySize=auto;html=1;exitX=0;exitY=0;exitDx=0;exitDy=0;entryX=1;entryY=0.5;entryDx=0;entryDy=0;" edge="1" parent="1" source="4kRK0BYigSoJ91SEgmZK-1785" target="4kRK0BYigSoJ91SEgmZK-1791">
          <mxGeometry relative="1" as="geometry" />
        </mxCell>
        <mxCell id="4kRK0BYigSoJ91SEgmZK-1799" style="edgeStyle=orthogonalEdgeStyle;rounded=0;orthogonalLoop=1;jettySize=auto;html=1;exitX=0.5;exitY=0;exitDx=0;exitDy=0;entryX=0.5;entryY=1;entryDx=0;entryDy=0;" edge="1" parent="1" source="4kRK0BYigSoJ91SEgmZK-1785" target="4kRK0BYigSoJ91SEgmZK-1792">
          <mxGeometry relative="1" as="geometry" />
        </mxCell>
        <mxCell id="4kRK0BYigSoJ91SEgmZK-1785" value="&lt;b&gt;&lt;font style=&quot;font-size: 15px;&quot;&gt;创建型模式(5种)&lt;/font&gt;&lt;/b&gt;" style="rounded=1;whiteSpace=wrap;html=1;fillColor=#f8cecc;strokeColor=#b85450;" vertex="1" parent="1">
          <mxGeometry x="540" y="1420" width="120" height="60" as="geometry" />
        </mxCell>
        <mxCell id="4kRK0BYigSoJ91SEgmZK-1808" style="edgeStyle=orthogonalEdgeStyle;rounded=0;orthogonalLoop=1;jettySize=auto;html=1;exitX=0.5;exitY=0;exitDx=0;exitDy=0;entryX=0.5;entryY=1;entryDx=0;entryDy=0;" edge="1" parent="1" source="4kRK0BYigSoJ91SEgmZK-1787" target="4kRK0BYigSoJ91SEgmZK-1801">
          <mxGeometry relative="1" as="geometry" />
        </mxCell>
        <mxCell id="4kRK0BYigSoJ91SEgmZK-1809" style="edgeStyle=orthogonalEdgeStyle;rounded=0;orthogonalLoop=1;jettySize=auto;html=1;exitX=0;exitY=0;exitDx=0;exitDy=0;entryX=0.5;entryY=1;entryDx=0;entryDy=0;" edge="1" parent="1" source="4kRK0BYigSoJ91SEgmZK-1787" target="4kRK0BYigSoJ91SEgmZK-1802">
          <mxGeometry relative="1" as="geometry" />
        </mxCell>
        <mxCell id="4kRK0BYigSoJ91SEgmZK-1810" style="edgeStyle=orthogonalEdgeStyle;rounded=0;orthogonalLoop=1;jettySize=auto;html=1;exitX=0;exitY=0.25;exitDx=0;exitDy=0;entryX=0.5;entryY=1;entryDx=0;entryDy=0;" edge="1" parent="1" source="4kRK0BYigSoJ91SEgmZK-1787" target="4kRK0BYigSoJ91SEgmZK-1803">
          <mxGeometry relative="1" as="geometry" />
        </mxCell>
        <mxCell id="4kRK0BYigSoJ91SEgmZK-1811" style="edgeStyle=orthogonalEdgeStyle;rounded=0;orthogonalLoop=1;jettySize=auto;html=1;exitX=0;exitY=0.5;exitDx=0;exitDy=0;entryX=1;entryY=0.5;entryDx=0;entryDy=0;" edge="1" parent="1" source="4kRK0BYigSoJ91SEgmZK-1787" target="4kRK0BYigSoJ91SEgmZK-1804">
          <mxGeometry relative="1" as="geometry" />
        </mxCell>
        <mxCell id="4kRK0BYigSoJ91SEgmZK-1812" style="edgeStyle=orthogonalEdgeStyle;rounded=0;orthogonalLoop=1;jettySize=auto;html=1;exitX=0;exitY=0.75;exitDx=0;exitDy=0;entryX=0.5;entryY=0;entryDx=0;entryDy=0;" edge="1" parent="1" source="4kRK0BYigSoJ91SEgmZK-1787" target="4kRK0BYigSoJ91SEgmZK-1805">
          <mxGeometry relative="1" as="geometry" />
        </mxCell>
        <mxCell id="4kRK0BYigSoJ91SEgmZK-1813" style="edgeStyle=orthogonalEdgeStyle;rounded=0;orthogonalLoop=1;jettySize=auto;html=1;exitX=0;exitY=1;exitDx=0;exitDy=0;entryX=0.5;entryY=0;entryDx=0;entryDy=0;" edge="1" parent="1" source="4kRK0BYigSoJ91SEgmZK-1787" target="4kRK0BYigSoJ91SEgmZK-1806">
          <mxGeometry relative="1" as="geometry" />
        </mxCell>
        <mxCell id="4kRK0BYigSoJ91SEgmZK-1814" style="edgeStyle=orthogonalEdgeStyle;rounded=0;orthogonalLoop=1;jettySize=auto;html=1;exitX=0.5;exitY=1;exitDx=0;exitDy=0;entryX=0.5;entryY=0;entryDx=0;entryDy=0;" edge="1" parent="1" source="4kRK0BYigSoJ91SEgmZK-1787" target="4kRK0BYigSoJ91SEgmZK-1807">
          <mxGeometry relative="1" as="geometry" />
        </mxCell>
        <mxCell id="4kRK0BYigSoJ91SEgmZK-1787" value="&lt;font style=&quot;font-size: 15px;&quot;&gt;&lt;b&gt;构造型模式(7种)&lt;/b&gt;&lt;/font&gt;" style="rounded=1;whiteSpace=wrap;html=1;fillColor=#d5e8d4;strokeColor=#82b366;" vertex="1" parent="1">
          <mxGeometry x="240" y="1640" width="120" height="60" as="geometry" />
        </mxCell>
        <mxCell id="4kRK0BYigSoJ91SEgmZK-1829" style="edgeStyle=orthogonalEdgeStyle;rounded=0;orthogonalLoop=1;jettySize=auto;html=1;exitX=0;exitY=0.25;exitDx=0;exitDy=0;entryX=0.5;entryY=1;entryDx=0;entryDy=0;fontSize=13;" edge="1" parent="1" source="4kRK0BYigSoJ91SEgmZK-1788" target="4kRK0BYigSoJ91SEgmZK-1821">
          <mxGeometry relative="1" as="geometry" />
        </mxCell>
        <mxCell id="4kRK0BYigSoJ91SEgmZK-1830" style="edgeStyle=orthogonalEdgeStyle;rounded=0;orthogonalLoop=1;jettySize=auto;html=1;exitX=0;exitY=0.75;exitDx=0;exitDy=0;entryX=0.5;entryY=0;entryDx=0;entryDy=0;fontSize=13;" edge="1" parent="1" source="4kRK0BYigSoJ91SEgmZK-1788" target="4kRK0BYigSoJ91SEgmZK-1822">
          <mxGeometry relative="1" as="geometry" />
        </mxCell>
        <mxCell id="4kRK0BYigSoJ91SEgmZK-1831" style="edgeStyle=orthogonalEdgeStyle;rounded=0;orthogonalLoop=1;jettySize=auto;html=1;exitX=0.5;exitY=0;exitDx=0;exitDy=0;entryX=0.5;entryY=1;entryDx=0;entryDy=0;fontSize=13;" edge="1" parent="1" source="4kRK0BYigSoJ91SEgmZK-1788" target="4kRK0BYigSoJ91SEgmZK-1815">
          <mxGeometry relative="1" as="geometry" />
        </mxCell>
        <mxCell id="4kRK0BYigSoJ91SEgmZK-1832" style="edgeStyle=orthogonalEdgeStyle;rounded=0;orthogonalLoop=1;jettySize=auto;html=1;exitX=0.5;exitY=1;exitDx=0;exitDy=0;entryX=0.5;entryY=0;entryDx=0;entryDy=0;fontSize=13;" edge="1" parent="1" source="4kRK0BYigSoJ91SEgmZK-1788" target="4kRK0BYigSoJ91SEgmZK-1827">
          <mxGeometry relative="1" as="geometry" />
        </mxCell>
        <mxCell id="4kRK0BYigSoJ91SEgmZK-1834" style="edgeStyle=orthogonalEdgeStyle;rounded=0;orthogonalLoop=1;jettySize=auto;html=1;exitX=0.75;exitY=0;exitDx=0;exitDy=0;entryX=0.5;entryY=1;entryDx=0;entryDy=0;fontSize=13;" edge="1" parent="1" source="4kRK0BYigSoJ91SEgmZK-1788" target="4kRK0BYigSoJ91SEgmZK-1826">
          <mxGeometry relative="1" as="geometry" />
        </mxCell>
        <mxCell id="4kRK0BYigSoJ91SEgmZK-1835" style="edgeStyle=orthogonalEdgeStyle;rounded=0;orthogonalLoop=1;jettySize=auto;html=1;exitX=0.75;exitY=1;exitDx=0;exitDy=0;entryX=0.5;entryY=0;entryDx=0;entryDy=0;fontSize=13;" edge="1" parent="1" source="4kRK0BYigSoJ91SEgmZK-1788" target="4kRK0BYigSoJ91SEgmZK-1825">
          <mxGeometry relative="1" as="geometry" />
        </mxCell>
        <mxCell id="4kRK0BYigSoJ91SEgmZK-1836" style="edgeStyle=orthogonalEdgeStyle;rounded=0;orthogonalLoop=1;jettySize=auto;html=1;exitX=1;exitY=0;exitDx=0;exitDy=0;entryX=0.5;entryY=1;entryDx=0;entryDy=0;fontSize=13;" edge="1" parent="1" source="4kRK0BYigSoJ91SEgmZK-1788" target="4kRK0BYigSoJ91SEgmZK-1824">
          <mxGeometry relative="1" as="geometry" />
        </mxCell>
        <mxCell id="4kRK0BYigSoJ91SEgmZK-1837" style="edgeStyle=orthogonalEdgeStyle;rounded=0;orthogonalLoop=1;jettySize=auto;html=1;exitX=1;exitY=1;exitDx=0;exitDy=0;entryX=0.5;entryY=0;entryDx=0;entryDy=0;fontSize=13;" edge="1" parent="1" source="4kRK0BYigSoJ91SEgmZK-1788" target="4kRK0BYigSoJ91SEgmZK-1823">
          <mxGeometry relative="1" as="geometry" />
        </mxCell>
        <mxCell id="4kRK0BYigSoJ91SEgmZK-1838" style="edgeStyle=orthogonalEdgeStyle;rounded=0;orthogonalLoop=1;jettySize=auto;html=1;exitX=1;exitY=0.25;exitDx=0;exitDy=0;entryX=0.5;entryY=1;entryDx=0;entryDy=0;fontSize=13;" edge="1" parent="1" source="4kRK0BYigSoJ91SEgmZK-1788" target="4kRK0BYigSoJ91SEgmZK-1820">
          <mxGeometry relative="1" as="geometry" />
        </mxCell>
        <mxCell id="4kRK0BYigSoJ91SEgmZK-1839" style="edgeStyle=orthogonalEdgeStyle;rounded=0;orthogonalLoop=1;jettySize=auto;html=1;exitX=1;exitY=0.75;exitDx=0;exitDy=0;entryX=0.5;entryY=0;entryDx=0;entryDy=0;fontSize=13;" edge="1" parent="1" source="4kRK0BYigSoJ91SEgmZK-1788" target="4kRK0BYigSoJ91SEgmZK-1819">
          <mxGeometry relative="1" as="geometry" />
        </mxCell>
        <mxCell id="4kRK0BYigSoJ91SEgmZK-1840" style="edgeStyle=orthogonalEdgeStyle;rounded=0;orthogonalLoop=1;jettySize=auto;html=1;exitX=1;exitY=0.5;exitDx=0;exitDy=0;entryX=0;entryY=0.5;entryDx=0;entryDy=0;fontSize=13;" edge="1" parent="1" source="4kRK0BYigSoJ91SEgmZK-1788" target="4kRK0BYigSoJ91SEgmZK-1818">
          <mxGeometry relative="1" as="geometry" />
        </mxCell>
        <mxCell id="4kRK0BYigSoJ91SEgmZK-1788" value="&lt;b&gt;&lt;font style=&quot;font-size: 13px;&quot;&gt;行为型模式(11种)&lt;/font&gt;&lt;/b&gt;" style="rounded=1;whiteSpace=wrap;html=1;fillColor=#dae8fc;strokeColor=#6c8ebf;" vertex="1" parent="1">
          <mxGeometry x="850" y="1640" width="120" height="60" as="geometry" />
        </mxCell>
        <mxCell id="4kRK0BYigSoJ91SEgmZK-1790" value="抽象工厂模式" style="rounded=1;whiteSpace=wrap;html=1;fillColor=#f8cecc;strokeColor=#b85450;" vertex="1" parent="1">
          <mxGeometry x="325" y="1420" width="120" height="60" as="geometry" />
        </mxCell>
        <mxCell id="4kRK0BYigSoJ91SEgmZK-1791" value="单例模式" style="rounded=1;whiteSpace=wrap;html=1;fillColor=#f8cecc;strokeColor=#b85450;" vertex="1" parent="1">
          <mxGeometry x="400" y="1310" width="120" height="60" as="geometry" />
        </mxCell>
        <mxCell id="4kRK0BYigSoJ91SEgmZK-1792" value="工厂方法模式" style="rounded=1;whiteSpace=wrap;html=1;fillColor=#f8cecc;strokeColor=#b85450;" vertex="1" parent="1">
          <mxGeometry x="540" y="1220" width="120" height="60" as="geometry" />
        </mxCell>
        <mxCell id="4kRK0BYigSoJ91SEgmZK-1793" value="建造者模式" style="rounded=1;whiteSpace=wrap;html=1;fillColor=#f8cecc;strokeColor=#b85450;" vertex="1" parent="1">
          <mxGeometry x="700" y="1310" width="120" height="60" as="geometry" />
        </mxCell>
        <mxCell id="4kRK0BYigSoJ91SEgmZK-1794" value="原型模式" style="rounded=1;whiteSpace=wrap;html=1;fillColor=#f8cecc;strokeColor=#b85450;" vertex="1" parent="1">
          <mxGeometry x="780" y="1420" width="120" height="60" as="geometry" />
        </mxCell>
        <mxCell id="4kRK0BYigSoJ91SEgmZK-1801" value="适配器模式" style="rounded=1;whiteSpace=wrap;html=1;fillColor=#d5e8d4;strokeColor=#82b366;" vertex="1" parent="1">
          <mxGeometry x="240" y="1540" width="120" height="60" as="geometry" />
        </mxCell>
        <mxCell id="4kRK0BYigSoJ91SEgmZK-1802" value="装饰器模式" style="rounded=1;whiteSpace=wrap;html=1;fillColor=#d5e8d4;strokeColor=#82b366;" vertex="1" parent="1">
          <mxGeometry x="100" y="1540" width="120" height="60" as="geometry" />
        </mxCell>
        <mxCell id="4kRK0BYigSoJ91SEgmZK-1803" value="代理模式" style="rounded=1;whiteSpace=wrap;html=1;fillColor=#d5e8d4;strokeColor=#82b366;" vertex="1" parent="1">
          <mxGeometry x="-40" y="1540" width="120" height="60" as="geometry" />
        </mxCell>
        <mxCell id="4kRK0BYigSoJ91SEgmZK-1804" value="外观模式" style="rounded=1;whiteSpace=wrap;html=1;fillColor=#d5e8d4;strokeColor=#82b366;" vertex="1" parent="1">
          <mxGeometry x="-160" y="1640" width="120" height="60" as="geometry" />
        </mxCell>
        <mxCell id="4kRK0BYigSoJ91SEgmZK-1805" value="桥接模式" style="rounded=1;whiteSpace=wrap;html=1;fillColor=#d5e8d4;strokeColor=#82b366;" vertex="1" parent="1">
          <mxGeometry x="-40" y="1740" width="120" height="60" as="geometry" />
        </mxCell>
        <mxCell id="4kRK0BYigSoJ91SEgmZK-1806" value="组合模式" style="rounded=1;whiteSpace=wrap;html=1;fillColor=#d5e8d4;strokeColor=#82b366;" vertex="1" parent="1">
          <mxGeometry x="100" y="1740" width="120" height="60" as="geometry" />
        </mxCell>
        <mxCell id="4kRK0BYigSoJ91SEgmZK-1807" value="享元模式" style="rounded=1;whiteSpace=wrap;html=1;fillColor=#d5e8d4;strokeColor=#82b366;" vertex="1" parent="1">
          <mxGeometry x="240" y="1740" width="120" height="60" as="geometry" />
        </mxCell>
        <mxCell id="4kRK0BYigSoJ91SEgmZK-1815" value="模式方法模式" style="rounded=1;whiteSpace=wrap;html=1;fontSize=13;fillColor=#dae8fc;strokeColor=#6c8ebf;" vertex="1" parent="1">
          <mxGeometry x="850" y="1540" width="120" height="60" as="geometry" />
        </mxCell>
        <mxCell id="4kRK0BYigSoJ91SEgmZK-1818" value="命令模式" style="rounded=1;whiteSpace=wrap;html=1;fontSize=13;fillColor=#dae8fc;strokeColor=#6c8ebf;" vertex="1" parent="1">
          <mxGeometry x="1400" y="1640" width="120" height="60" as="geometry" />
        </mxCell>
        <mxCell id="4kRK0BYigSoJ91SEgmZK-1819" value="备忘录模式" style="rounded=1;whiteSpace=wrap;html=1;fontSize=13;fillColor=#dae8fc;strokeColor=#6c8ebf;" vertex="1" parent="1">
          <mxGeometry x="1270" y="1740" width="120" height="60" as="geometry" />
        </mxCell>
        <mxCell id="4kRK0BYigSoJ91SEgmZK-1820" value="责任链模式" style="rounded=1;whiteSpace=wrap;html=1;fontSize=13;fillColor=#dae8fc;strokeColor=#6c8ebf;" vertex="1" parent="1">
          <mxGeometry x="1270" y="1540" width="120" height="60" as="geometry" />
        </mxCell>
        <mxCell id="4kRK0BYigSoJ91SEgmZK-1821" value="策略模式" style="rounded=1;whiteSpace=wrap;html=1;fontSize=13;fillColor=#dae8fc;strokeColor=#6c8ebf;" vertex="1" parent="1">
          <mxGeometry x="705" y="1540" width="120" height="60" as="geometry" />
        </mxCell>
        <mxCell id="4kRK0BYigSoJ91SEgmZK-1822" value="解释器模式" style="rounded=1;whiteSpace=wrap;html=1;fontSize=13;fillColor=#dae8fc;strokeColor=#6c8ebf;" vertex="1" parent="1">
          <mxGeometry x="705" y="1740" width="120" height="60" as="geometry" />
        </mxCell>
        <mxCell id="4kRK0BYigSoJ91SEgmZK-1823" value="状态模式" style="rounded=1;whiteSpace=wrap;html=1;fontSize=13;fillColor=#dae8fc;strokeColor=#6c8ebf;" vertex="1" parent="1">
          <mxGeometry x="1130" y="1740" width="120" height="60" as="geometry" />
        </mxCell>
        <mxCell id="4kRK0BYigSoJ91SEgmZK-1824" value="迭代子模式" style="rounded=1;whiteSpace=wrap;html=1;fontSize=13;fillColor=#dae8fc;strokeColor=#6c8ebf;" vertex="1" parent="1">
          <mxGeometry x="1130" y="1540" width="120" height="60" as="geometry" />
        </mxCell>
        <mxCell id="4kRK0BYigSoJ91SEgmZK-1825" value="访问者模式" style="rounded=1;whiteSpace=wrap;html=1;fontSize=13;fillColor=#dae8fc;strokeColor=#6c8ebf;" vertex="1" parent="1">
          <mxGeometry x="990" y="1740" width="120" height="60" as="geometry" />
        </mxCell>
        <mxCell id="4kRK0BYigSoJ91SEgmZK-1826" value="观察者模式" style="rounded=1;whiteSpace=wrap;html=1;fontSize=13;fillColor=#dae8fc;strokeColor=#6c8ebf;" vertex="1" parent="1">
          <mxGeometry x="990" y="1540" width="120" height="60" as="geometry" />
        </mxCell>
        <mxCell id="4kRK0BYigSoJ91SEgmZK-1827" value="中介者模式" style="rounded=1;whiteSpace=wrap;html=1;fontSize=13;fillColor=#dae8fc;strokeColor=#6c8ebf;" vertex="1" parent="1">
          <mxGeometry x="850" y="1740" width="120" height="60" as="geometry" />
        </mxCell>
        <mxCell id="4kRK0BYigSoJ91SEgmZK-1841" value="开闭原则" style="rounded=1;whiteSpace=wrap;html=1;fontSize=13;fillColor=#ffe6cc;strokeColor=#d79b00;" vertex="1" parent="1">
          <mxGeometry x="-440" y="1410" width="120" height="60" as="geometry" />
        </mxCell>
        <mxCell id="4kRK0BYigSoJ91SEgmZK-1842" value="&lt;b&gt;&lt;font style=&quot;font-size: 18px;&quot;&gt;设计模式六原则&lt;/font&gt;&lt;/b&gt;" style="text;html=1;strokeColor=none;fillColor=none;align=center;verticalAlign=middle;whiteSpace=wrap;rounded=0;fontSize=13;" vertex="1" parent="1">
          <mxGeometry x="-475" y="1340" width="190" height="80" as="geometry" />
        </mxCell>
        <mxCell id="4kRK0BYigSoJ91SEgmZK-1843" value="里氏代替原则" style="rounded=1;whiteSpace=wrap;html=1;fontSize=13;fillColor=#fff2cc;strokeColor=#d6b656;" vertex="1" parent="1">
          <mxGeometry x="-440" y="1490" width="120" height="60" as="geometry" />
        </mxCell>
        <mxCell id="4kRK0BYigSoJ91SEgmZK-1844" value="依赖倒转原则" style="rounded=1;whiteSpace=wrap;html=1;fontSize=13;fillColor=#dae8fc;strokeColor=#6c8ebf;" vertex="1" parent="1">
          <mxGeometry x="-440" y="1580" width="120" height="60" as="geometry" />
        </mxCell>
        <mxCell id="4kRK0BYigSoJ91SEgmZK-1845" value="接口隔离原则" style="rounded=1;whiteSpace=wrap;html=1;fontSize=13;fillColor=#f8cecc;strokeColor=#b85450;" vertex="1" parent="1">
          <mxGeometry x="-440" y="1670" width="120" height="60" as="geometry" />
        </mxCell>
        <mxCell id="4kRK0BYigSoJ91SEgmZK-1846" value="合成复用原则" style="rounded=1;whiteSpace=wrap;html=1;fontSize=13;fillColor=#e1d5e7;strokeColor=#9673a6;" vertex="1" parent="1">
          <mxGeometry x="-440" y="1850" width="120" height="60" as="geometry" />
        </mxCell>
        <mxCell id="4kRK0BYigSoJ91SEgmZK-1847" value="迪米特法则" style="rounded=1;whiteSpace=wrap;html=1;fontSize=13;fillColor=#d5e8d4;strokeColor=#82b366;" vertex="1" parent="1">
          <mxGeometry x="-440" y="1760" width="120" height="60" as="geometry" />
        </mxCell>
      </root>
    </mxGraphModel>
  </diagram>
</mxfile>
